<?xml version="1.0" encoding="utf-8"?>
<!-- Generator: Adobe Illustrator 22.1.0, SVG Export Plug-In . SVG Version: 6.00 Build 0)  -->
<svg version="1.1" id="Layer_1" xmlns="http://www.w3.org/2000/svg" xmlns:xlink="http://www.w3.org/1999/xlink" x="0px" y="0px"
	 viewBox="0 0 28 32" style="enable-background:new 0 0 28 32;" xml:space="preserve">
<style type="text/css">
	.st0{fill:#ECECEC;}
	.st1{fill:#606060;}
	.st2{fill:#161616;}
	.st3{fill:#41BAEB;}
</style>
<g>
	<path class="st0" d="M27.9,15.3h-8.9c1.1-1.3,1.7-2.9,1.7-5c0-2.3-0.7-4.1-2.1-5.4c-1.4-1.3-3.4-2-5.8-2H9.3
		c-2.8,1-5.3,2.9-6.9,5.4v15.5C3.1,24.8,4,25.8,5,26.7v-8.9h4.8v0h9.6L17.9,25l-1,4.7c6.3-1.3,11-6.9,11-13.6
		C27.9,15.8,27.9,15.5,27.9,15.3z"/>
	<path class="st1" d="M14,5.4c-0.2,0-0.4,0-0.6,0c1.4,0.1,2.6,0.5,3.4,1.3c0.9,0.9,1.4,2.1,1.4,3.6c0,1.6-0.5,2.8-1.4,3.7
		c-0.9,0.9-2.3,1.3-4.1,1.3H9.9H5v-5C4,11.9,3.4,13.9,3.4,16c0,5.9,4.8,10.6,10.6,10.6S24.6,21.9,24.6,16C24.6,10.1,19.9,5.4,14,5.4
		z"/>
	<path class="st2" d="M12.8,2.9c2.5,0,4.4,0.7,5.8,2c1.4,1.3,2.1,3.1,2.1,5.4c0,2-0.6,3.7-1.7,5h8.9C27.6,7.9,21.5,2.1,14,2.1
		c-1.6,0-3.2,0.3-4.7,0.8H12.8z"/>
	<path class="st2" d="M19.4,17.8H9.9v0H5v8.9c2.4,2,5.6,3.3,9,3.3c1,0,2-0.1,2.9-0.3l1-4.7L19.4,17.8z"/>
	<path class="st2" d="M2.4,8.3c-1.5,2.2-2.3,4.9-2.3,7.7c0,2.9,0.9,5.5,2.3,7.7V8.3z"/>
	<path class="st3" d="M12.6,15.3c1.8,0,3.2-0.4,4.1-1.3c0.9-0.9,1.4-2.1,1.4-3.7c0-1.5-0.5-2.7-1.4-3.6c-0.9-0.9-2.3-1.3-4.1-1.3H5
		v9.9h4.8H12.6z"/>
	<path class="st3" d="M22.1,17.8l-2.3,11c4.2-1.8,7.7-6.3,8.1-11H22.1z"/>
</g>
</svg>
